<svg width="88" height="40" viewBox="0 0 88 40" fill="none" xmlns="http://www.w3.org/2000/svg">
<path d="M13.9994 10.375H17.7933L26.8515 30.6563H21.6754L19.8814 26.3594H11.7937L10.0585 30.6563H5L13.9994 10.375ZM15.764 16.276L13.2348 22.5781H18.3227L15.764 16.276Z" fill="#01996D"/>
<path d="M28.4459 9H32.8573V30.6563H28.4459V9Z" fill="#01996D"/>
<path d="M36.0855 16.7344H40.497V30.6563H36.0855V16.7344ZM35.7326 12.3516C35.7326 11.6641 35.9777 11.0816 36.4679 10.6042C36.9776 10.1076 37.5854 9.85938 38.2913 9.85938C38.9971 9.85938 39.5951 10.1076 40.0853 10.6042C40.595 11.0816 40.8499 11.6641 40.8499 12.3516C40.8499 13.0391 40.595 13.6311 40.0853 14.1276C39.5951 14.605 38.9971 14.8437 38.2913 14.8437C37.5854 14.8437 36.9776 14.605 36.4679 14.1276C35.9777 13.6311 35.7326 13.0391 35.7326 12.3516Z" fill="#01996D"/>
<path d="M42.1665 16.7344H46.9309L50.5483 26.1875H50.6071L53.9598 16.7344H58.4007L52.754 30.6563H48.0779L42.1665 16.7344Z" fill="#01996D"/>
<path d="M60.0672 16.7344H64.4787V30.6563H60.0672V16.7344ZM59.7143 12.3516C59.7143 11.6641 59.9594 11.0816 60.4495 10.6042C60.9593 10.1076 61.5671 9.85938 62.2729 9.85938C62.9788 9.85938 63.5768 10.1076 64.0669 10.6042C64.5767 11.0816 64.8316 11.6641 64.8316 12.3516C64.8316 13.0391 64.5767 13.6311 64.0669 14.1276C63.5768 14.605 62.9788 14.8437 62.2729 14.8437C61.5671 14.8437 60.9593 14.605 60.4495 14.1276C59.9594 13.6311 59.7143 13.0391 59.7143 12.3516Z" fill="#01996D"/>
<path d="M67.1187 23.6953C67.1187 22.5877 67.3245 21.5851 67.7363 20.6875C68.148 19.7899 68.7068 19.026 69.4126 18.3958C70.1381 17.7465 70.9812 17.25 71.9419 16.9063C72.9222 16.5625 73.9614 16.3906 75.0593 16.3906C76.1573 16.3906 77.1867 16.5625 78.1474 16.9063C79.1277 17.25 79.9708 17.7465 80.6766 18.3958C81.4021 19.026 81.9707 19.7899 82.3824 20.6875C82.7941 21.5851 83 22.5877 83 23.6953C83 24.803 82.7941 25.8056 82.3824 26.7031C81.9707 27.6007 81.4021 28.3741 80.6766 29.0234C79.9708 29.6536 79.1277 30.1406 78.1474 30.4844C77.1867 30.8281 76.1573 31 75.0593 31C73.9614 31 72.9222 30.8281 71.9419 30.4844C70.9812 30.1406 70.1381 29.6536 69.4126 29.0234C68.7068 28.3741 68.148 27.6007 67.7363 26.7031C67.3245 25.8056 67.1187 24.803 67.1187 23.6953ZM71.5302 23.6953C71.5302 24.7457 71.8341 25.5955 72.4419 26.2448C73.0693 26.8941 73.9418 27.2188 75.0593 27.2188C76.1769 27.2188 77.0396 26.8941 77.6474 26.2448C78.2748 25.5955 78.5885 24.7457 78.5885 23.6953C78.5885 22.645 78.2748 21.7951 77.6474 21.1458C77.0396 20.4965 76.1769 20.1719 75.0593 20.1719C73.9418 20.1719 73.0693 20.4965 72.4419 21.1458C71.8341 21.7951 71.5302 22.645 71.5302 23.6953Z" fill="#01996D"/>
</svg>
