<svg width="80" height="80" viewBox="0 0 80 80" fill="none" xmlns="http://www.w3.org/2000/svg">
<g clip-path="url(#clip0_1_65)">
<path d="M40 0C17.9427 0 0 17.9444 0 40C0 62.0556 17.9427 80 40 80C62.0573 80 80 62.0556 80 40C80 17.9444 62.0573 0 40 0ZM40 76.6667C19.7819 76.6667 3.33328 60.2181 3.33328 40C3.33328 19.7819 19.7819 3.33328 40 3.33328C60.2181 3.33328 76.6667 19.7819 76.6667 40C76.6667 60.2181 60.2181 76.6667 40 76.6667Z" fill="white"/>
<path d="M55.9021 38.5986L32.5689 23.5986C32.0578 23.265 31.397 23.247 30.8696 23.5367C30.3325 23.8297 30.0004 24.3897 30.0004 25V55C30.0004 55.6103 30.3325 56.1703 30.8696 56.4633C31.117 56.5984 31.3937 56.6667 31.6671 56.6667C31.9796 56.6667 32.2954 56.5788 32.5689 56.4014L55.9021 41.4014C56.3775 41.0955 56.6671 40.5664 56.6671 40C56.6671 39.4336 56.3775 38.9047 55.9021 38.5986ZM33.3337 51.9466V28.0534L51.9178 40L33.3337 51.9466Z" fill="white"/>
</g>
<defs>
<clipPath id="clip0_1_65">
<rect width="80" height="80" fill="white"/>
</clipPath>
</defs>
</svg>
